<svg width="242" height="72" viewBox="0 0 242 72" fill="none" xmlns="http://www.w3.org/2000/svg">
<g filter="url(#filter0_d_1_10)">
<path d="M26.448 40.36V57H15.952V40.424L1.488 12.648H12.976L21.392 31.752L29.872 12.648H40.912L26.448 40.36ZM60.855 21.896C64.3537 21.896 67.3297 22.6427 69.783 24.136C72.2363 25.6293 74.1137 27.7307 75.415 30.44C76.7163 33.128 77.367 36.2853 77.367 39.912C77.367 43.688 76.7057 46.9413 75.383 49.672C74.0817 52.3813 72.2043 54.4613 69.751 55.912C67.2977 57.3627 64.3323 58.088 60.855 58.088C57.399 58.088 54.4337 57.3733 51.959 55.944C49.5057 54.5147 47.6177 52.4453 46.295 49.736C44.9937 47.0267 44.343 43.7733 44.343 39.976C44.343 36.3707 44.9937 33.2133 46.295 30.504C47.6177 27.7947 49.5057 25.6827 51.959 24.168C54.4337 22.6533 57.399 21.896 60.855 21.896ZM60.855 29.352C58.7857 29.352 57.2497 30.2053 56.247 31.912C55.2657 33.5973 54.775 36.2853 54.775 39.976C54.775 43.7307 55.2657 46.4507 56.247 48.136C57.2497 49.8213 58.7857 50.664 60.855 50.664C62.9243 50.664 64.4497 49.8213 65.431 48.136C66.4337 46.4507 66.935 43.7093 66.935 39.912C66.935 36.2427 66.4337 33.5653 65.431 31.88C64.4497 30.1947 62.9243 29.352 60.855 29.352ZM95.902 23.016V46.28C95.902 47.9227 96.2007 49.0533 96.798 49.672C97.4167 50.2907 98.27 50.6 99.358 50.6C100.403 50.6 101.449 50.2693 102.494 49.608C103.539 48.9467 104.414 48.0507 105.118 46.92V23.016H115.23V57H106.398L105.95 53.032C104.798 54.696 103.283 55.9547 101.406 56.808C99.5287 57.6613 97.566 58.088 95.518 58.088C92.2327 58.088 89.79 57.1387 88.19 55.24C86.59 53.32 85.79 50.7493 85.79 47.528V23.016H95.902Z" fill="white"/>
<path d="M146.853 34.6C146.853 31.6133 146.597 29.1813 146.085 27.304C145.594 25.4267 144.901 23.976 144.005 22.952C143.13 21.928 142.096 21.224 140.901 20.84C139.706 20.456 138.416 20.264 137.029 20.264H134.789V49.416H137.029C138.48 49.416 139.802 49.192 140.997 48.744C142.213 48.2747 143.258 47.496 144.133 46.408C145.008 45.2987 145.68 43.784 146.149 41.864C146.618 39.944 146.853 37.5227 146.853 34.6ZM157.733 34.6C157.733 38.2053 157.349 41.2987 156.581 43.88C155.813 46.44 154.736 48.5733 153.349 50.28C151.984 51.9867 150.394 53.3307 148.581 54.312C146.768 55.2933 144.816 55.9867 142.725 56.392C140.634 56.7973 138.48 57 136.261 57H124.293V12.648H135.493C138.33 12.648 141.072 12.9467 143.717 13.544C146.384 14.12 148.762 15.1973 150.853 16.776C152.965 18.3333 154.64 20.552 155.877 23.432C157.114 26.2907 157.733 30.0133 157.733 34.6ZM173.868 42.952C174.103 44.808 174.583 46.312 175.308 47.464C176.055 48.5947 177.004 49.4267 178.156 49.96C179.308 50.472 180.599 50.728 182.028 50.728C183.585 50.728 185.089 50.472 186.54 49.96C187.991 49.448 189.388 48.7653 190.732 47.912L194.796 53.416C193.196 54.7813 191.255 55.9013 188.972 56.776C186.711 57.6507 184.129 58.088 181.228 58.088C177.345 58.088 174.092 57.32 171.468 55.784C168.844 54.2267 166.871 52.0933 165.548 49.384C164.225 46.6747 163.564 43.56 163.564 40.04C163.564 36.6907 164.204 33.6507 165.484 30.92C166.764 28.168 168.631 25.9813 171.084 24.36C173.559 22.7173 176.577 21.896 180.14 21.896C183.383 21.896 186.188 22.5893 188.556 23.976C190.945 25.3627 192.791 27.3573 194.092 29.96C195.415 32.5627 196.076 35.688 196.076 39.336C196.076 39.912 196.055 40.5307 196.012 41.192C195.991 41.8533 195.948 42.44 195.884 42.952H173.868ZM180.14 28.68C178.327 28.68 176.865 29.3307 175.756 30.632C174.647 31.9333 173.975 34.0133 173.74 36.872H186.22C186.199 34.3973 185.719 32.4133 184.78 30.92C183.841 29.4267 182.295 28.68 180.14 28.68ZM236.819 23.016L225.491 57H213.587L202.131 23.016H213.043L219.667 49.256L226.579 23.016H236.819Z" fill="#FED346"/>
</g>
<circle cx="238" cy="55" r="4" fill="white"/>
<defs>
<filter id="filter0_d_1_10" x="0.487999" y="12.648" width="237.331" height="47.44" filterUnits="userSpaceOnUse" color-interpolation-filters="sRGB">
<feFlood flood-opacity="0" result="BackgroundImageFix"/>
<feColorMatrix in="SourceAlpha" type="matrix" values="0 0 0 0 0 0 0 0 0 0 0 0 0 0 0 0 0 0 127 0" result="hardAlpha"/>
<feOffset dy="1"/>
<feGaussianBlur stdDeviation="0.5"/>
<feComposite in2="hardAlpha" operator="out"/>
<feColorMatrix type="matrix" values="0 0 0 0 0 0 0 0 0 0 0 0 0 0 0 0 0 0 0.25 0"/>
<feBlend mode="normal" in2="BackgroundImageFix" result="effect1_dropShadow_1_10"/>
<feBlend mode="normal" in="SourceGraphic" in2="effect1_dropShadow_1_10" result="shape"/>
</filter>
</defs>
</svg>
